<svg width="100" height="100" viewBox="0 0 100 100" fill="none" xmlns="http://www.w3.org/2000/svg">
<circle cx="50" cy="50" r="50" fill="#080B1C"/>
<g clip-path="url(#clip0_434_11)">
<path fill-rule="evenodd" clip-rule="evenodd" d="M54.042 18.91C55.859 16.7308 59.3981 18.22 59.1106 21.0433L57.0809 40.875H73.5C74.0463 40.8752 74.5812 41.0311 75.0422 41.3243C75.5031 41.6175 75.8709 42.036 76.1026 42.5307C76.3343 43.0255 76.4202 43.576 76.3503 44.1178C76.2804 44.6596 76.0576 45.1703 75.708 45.59L46.958 80.09C45.141 82.2693 41.6019 80.78 41.8894 77.9568L43.9191 58.125H27.5C26.9537 58.1248 26.4188 57.969 25.9579 57.6757C25.497 57.3825 25.1291 56.964 24.8974 56.4693C24.6658 55.9746 24.5798 55.4241 24.6497 54.8823C24.7196 54.3405 24.9424 53.8298 25.292 53.41L54.042 18.91Z" fill="#2585e0"/>
</g>
<defs>
<clipPath id="clip0_434_11">
<rect width="69" height="69" fill="white" transform="translate(16 15)"/>
</clipPath>
</defs>
</svg>


